<svg xmlns="http://www.w3.org/2000/svg" viewBox="0 0 541.48 609.62"><defs><style>.cls-1{fill:#9484be;}.cls-2{fill:#2d2338;}</style></defs><path class="cls-1" d="M298.33,38.16h0a244.36,244.36,0,0,0-124,33.6v5a3,3,0,0,0,2.86,3c26.71,1.08,46.36,15.63,59.37,42.21,4.16,8.49,19.09,38.72,38.09,39.47h.72v.92A106.35,106.35,0,0,1,177.05,267.5a3,3,0,0,0-2.75,3v11.88a3,3,0,0,0,3,3h81.26A171.83,171.83,0,0,1,430.39,457.2v33.43a245.3,245.3,0,0,0,113.44-207h0C543.83,148.07,433.91,38.16,298.33,38.16Zm74.78,103.66a16.25,16.25,0,0,1-16.24,16.25h-.09a16.25,16.25,0,0,1-16.25-16.25h0a16.25,16.25,0,0,1,16.25-16.25h.09a16.25,16.25,0,0,1,16.24,16.25Zm99.23,90L464,236.44a1.75,1.75,0,0,0-.73.72l-4.59,8.39a1.83,1.83,0,0,1-3.2,0l-4.58-8.39a1.75,1.75,0,0,0-.73-.72l-8.39-4.59a1.83,1.83,0,0,1,0-3.2l8.39-4.59a1.87,1.87,0,0,0,.73-.72l4.58-8.39a1.82,1.82,0,0,1,3.2,0l4.59,8.39a1.87,1.87,0,0,0,.73.72l8.38,4.59A1.82,1.82,0,0,1,472.34,231.85Z" transform="translate(-20.16 -30.42)"/><path class="cls-2" d="M210.17,526.51h0l218.19-.35a3,3,0,0,1,2.39,4.83,277.66,277.66,0,0,1-220.4,109h0A276.83,276.83,0,0,1,45.08,586a3,3,0,0,1,0-4.8A277,277,0,0,1,210.17,526.51Z" transform="translate(-20.16 -30.42)"/><path class="cls-2" d="M146.92,516.74a296.37,296.37,0,0,1,63.23-6.92l218.22-.36h0c.68,0,1.35.05,2,.11V457.2A171.83,171.83,0,0,0,258.56,285.37H177.3a3,3,0,0,1-3-3V270.49a3,3,0,0,1,2.75-3,106.35,106.35,0,0,0,98.28-105.14v-.92h-.72c-19-.75-33.93-31-38.09-39.47-13-26.58-32.66-41.13-59.37-42.21a3,3,0,0,1-2.86-3V39.52a3,3,0,0,0-4.4-2.66C83,82.19,23,172.07,20.25,276.22c0,.15,0,.3,0,.45q-.07,3.42-.08,6.87c0,1,0,2,0,2.95,0,1.22,0,2.44,0,3.65q.06,2.94.2,5.86c0,.21,0,.42,0,.64A278,278,0,0,0,146.92,516.74Z" transform="translate(-20.16 -30.42)"/><path class="cls-1" d="M524.41,32.77l11.75,21a4.49,4.49,0,0,0,1.84,1.8l21.21,11.34a4.59,4.59,0,0,1,.08,8l-21,11.75a4.49,4.49,0,0,0-1.8,1.84l-11.35,21.21a4.59,4.59,0,0,1-8,.08l-11.74-21a4.62,4.62,0,0,0-1.84-1.8L482.3,75.69a4.59,4.59,0,0,1-.08-8l21-11.74a4.62,4.62,0,0,0,1.8-1.84l11.34-21.21A4.59,4.59,0,0,1,524.41,32.77Z" transform="translate(-20.16 -30.42)"/></svg>